<svg version="1.1" id="Layer_1" xmlns="http://www.w3.org/2000/svg" xmlns:xlink="http://www.w3.org/1999/xlink" x="0px" y="0px"
	 width="100%" viewBox="0 0 229 230" enable-background="new 0 0 229 230" xml:space="preserve">
<path fill="#000000" opacity="1.000000" stroke="none" 
	d="
M136.000000,231.000000 
	C91.071945,231.000000 46.143883,231.000000 1.000000,231.000000 
	C1.000000,184.979324 1.000000,138.958328 1.394718,92.473145 
	C4.488317,92.689613 7.187196,93.370247 10.069067,94.384827 
	C13.149547,95.521927 16.047033,96.325073 19.073469,97.419632 
	C20.200480,98.404114 21.198540,99.097176 22.113514,100.160316 
	C16.223297,111.287102 10.502015,122.091660 4.551380,132.768402 
	C2.975455,135.595947 2.914253,137.283493 5.956093,139.092819 
	C8.746652,140.752686 11.073584,143.175827 13.682713,145.160217 
	C19.382875,149.495514 25.132511,153.765747 30.998032,158.363007 
	C32.375000,159.459549 33.615875,160.255646 34.943611,161.297089 
	C35.312538,161.728912 35.594601,161.915390 36.050243,162.425827 
	C36.328140,163.474106 36.663502,164.255981 36.499733,164.913528 
	C35.330795,169.606812 34.060074,174.274765 32.498482,179.152969 
	C31.409163,182.545151 30.643080,185.735138 29.913450,188.946594 
	C29.949905,188.968079 29.946911,188.883499 29.697357,188.968384 
	C29.340258,189.358719 29.232712,189.664154 29.070427,190.371033 
	C28.063770,194.510864 27.111853,198.249268 25.965099,202.329620 
	C24.783192,206.423309 23.796118,210.175064 22.495308,214.144897 
	C21.467340,217.457016 20.753107,220.551025 19.826023,224.567108 
	C22.832586,223.119629 24.971121,222.090057 27.500748,221.036606 
	C32.280655,219.403900 36.669464,217.795090 41.442711,216.112000 
	C47.917362,213.710251 54.007576,211.382797 60.489731,209.031281 
	C70.236954,205.714508 79.592224,202.421799 89.110550,199.427155 
	C92.182991,201.441055 95.092369,203.156876 98.301773,205.013885 
	C100.023026,206.125717 101.444237,207.096359 103.019012,208.371246 
	C104.737785,209.472595 106.302994,210.269714 108.008636,211.383362 
	C110.079819,212.853394 112.010559,214.006897 114.079025,215.443512 
	C115.122505,216.210373 116.028267,216.694122 117.099228,217.468643 
	C118.802177,218.527206 120.339920,219.295013 122.018021,220.378983 
	C124.418938,222.183334 126.679512,223.671524 129.098328,225.451691 
	C130.464630,226.182297 131.672668,226.620895 133.032562,227.389252 
	C134.122940,228.812653 135.061478,229.906326 136.000000,231.000000 
z"/>
<path fill="#000000" opacity="1.000000" stroke="none" 
	d="
M43.000000,1.000000 
	C105.222755,1.000000 167.445511,1.000000 230.000000,1.000000 
	C230.000000,20.686319 230.000000,40.374500 229.723724,60.819756 
	C228.316391,60.996349 227.185364,60.415871 225.919601,59.537460 
	C224.544342,58.448387 223.303818,57.657249 221.943161,56.570229 
	C220.567749,55.135937 219.312454,53.997524 217.898682,52.558975 
	C215.510849,50.795406 213.281540,49.331978 210.925751,47.565159 
	C209.240189,46.158878 207.681076,45.055992 205.986847,43.639278 
	C202.918320,41.182449 199.984924,39.039444 196.919373,36.588684 
	C192.874268,33.147377 188.961288,30.013819 184.916473,26.569893 
	C176.971985,19.802370 169.223923,13.262833 161.249405,7.012182 
	C160.428345,6.368622 157.623184,6.891493 156.807205,7.816119 
	C148.017761,17.775736 139.442932,27.924749 130.520508,38.000862 
	C129.847794,37.931358 129.463959,37.882942 128.929474,37.531281 
	C125.869926,33.775375 122.961029,30.322720 119.917824,26.566948 
	C117.870522,24.805447 115.957527,23.347057 114.023811,21.531609 
	C112.688164,19.402618 111.373222,17.630692 109.924088,15.556107 
	C108.175316,13.555718 106.560753,11.857987 104.522964,10.091873 
	C98.731941,9.405108 93.364136,8.786728 87.573120,8.097605 
	C82.015259,7.351768 76.888023,6.612723 71.744316,6.015597 
	C62.540619,4.947155 53.323948,3.989268 44.126827,2.869167 
	C43.681934,2.814985 43.372509,1.648510 43.000000,1.000000 
z"/>
<path fill="#F6409B" opacity="1.000000" stroke="none" 
	d="
M42.545891,1.000000 
	C43.372509,1.648510 43.681934,2.814985 44.126827,2.869167 
	C53.323948,3.989268 62.540619,4.947155 71.744316,6.015597 
	C76.888023,6.612723 82.015259,7.351768 87.573517,8.469641 
	C87.272980,10.493951 86.921150,12.452254 85.764061,13.595647 
	C78.460190,20.813046 70.811790,27.688244 63.654560,35.043674 
	C61.486530,37.271740 60.514324,40.663406 58.536781,43.622459 
	C53.023560,43.722816 47.967941,43.722816 42.511150,43.722816 
	C42.511150,49.068130 42.511150,53.532196 42.139252,57.996056 
	C39.032990,59.309177 35.766815,60.055473 33.656769,62.034462 
	C24.747202,70.390656 17.313820,80.442017 5.796216,85.708748 
	C4.988900,86.077911 3.904047,85.840126 2.972198,85.495224 
	C3.107783,84.474258 3.126770,83.808609 3.344476,83.215950 
	C10.724324,63.125801 18.169241,43.059414 25.494570,22.949453 
	C28.140568,15.685492 30.506348,8.319457 33.000000,1.000000 
	C36.030594,1.000000 39.061188,1.000000 42.545891,1.000000 
z"/>
<path fill="#38C1EE" opacity="1.000000" stroke="none" 
	d="
M230.000000,64.000000 
	C230.000000,75.020897 230.000000,86.041786 229.606308,97.286438 
	C228.753006,101.007988 228.293396,104.505791 227.480347,108.081650 
	C225.410934,113.038467 223.256226,117.813354 222.071259,122.817871 
	C219.684677,132.897247 218.124527,143.174149 215.679413,153.237366 
	C212.044464,168.197586 207.988190,183.056747 203.980804,197.923782 
	C203.334793,200.320435 202.012436,202.534790 200.665283,204.998810 
	C195.899704,206.819214 191.471588,208.474228 187.031082,209.712921 
	C187.984344,206.371841 189.944458,203.368927 189.721863,200.537598 
	C189.144424,193.193085 191.756210,186.725571 193.781891,180.019547 
	C194.441193,177.836914 194.364746,175.438797 194.954407,173.227112 
	C196.536575,167.292603 199.880295,161.348877 199.671005,155.511093 
	C199.169495,141.521469 207.037506,129.593811 207.821472,115.942497 
	C208.244858,108.569984 211.835754,101.428596 213.313278,94.045967 
	C214.017792,90.525757 213.125504,86.685966 213.005066,82.671333 
	C213.727081,81.271278 214.400558,80.190826 215.409241,79.034447 
	C217.555435,76.660378 219.366409,74.362244 221.509766,72.008293 
	C224.561447,69.301659 227.280716,66.650826 230.000000,64.000000 
z"/>
<path fill="#000000" opacity="1.000000" stroke="none" 
	d="
M227.833786,108.003593 
	C228.293396,104.505791 228.753006,101.007988 229.606308,97.755096 
	C230.000000,142.246201 230.000000,186.492386 230.000000,231.000000 
	C200.312958,231.000000 170.625137,231.000000 140.193909,230.725815 
	C139.968750,229.912613 140.487015,229.373596 141.376892,228.900269 
	C144.833908,227.588791 147.919296,226.211594 151.374603,224.900299 
	C154.511108,223.687012 157.277679,222.407822 160.429031,221.070557 
	C164.913101,219.360245 169.012405,217.707993 173.485596,216.023285 
	C178.254150,214.036972 182.648804,212.083099 187.043472,210.129242 
	C191.471588,208.474228 195.899704,206.819214 201.037567,205.066849 
	C208.441254,202.189667 215.051758,199.175491 221.870941,196.747406 
	C224.532135,195.799835 225.343307,194.229324 225.444107,191.956665 
	C226.014877,179.088989 226.604324,166.220047 226.935043,153.345062 
	C227.036346,149.402115 225.947144,145.424820 226.085938,141.487320 
	C226.479599,130.319427 227.226181,119.163956 227.833786,108.003593 
z"/>
<path fill="#000000" opacity="1.000000" stroke="none" 
	d="
M32.531342,1.000000 
	C30.506348,8.319457 28.140568,15.685492 25.494570,22.949453 
	C18.169241,43.059414 10.724324,63.125801 3.344476,83.215950 
	C3.126770,83.808609 3.107783,84.474258 2.610452,85.641434 
	C1.816508,86.117989 1.408254,86.058998 1.000000,86.000000 
	C1.000000,57.773026 1.000000,29.546047 1.000000,1.000000 
	C11.352043,1.000000 21.707363,1.000000 32.531342,1.000000 
z"/>
<path fill="#F2409D" opacity="1.000000" stroke="none" 
	d="
M1.000000,86.428467 
	C1.408254,86.058998 1.816508,86.117989 2.586507,86.030777 
	C3.904047,85.840126 4.988900,86.077911 5.796216,85.708748 
	C17.313820,80.442017 24.747202,70.390656 33.656769,62.034462 
	C35.766815,60.055473 39.032990,59.309177 42.243317,58.436523 
	C42.650902,61.582615 42.582527,64.288025 42.158653,66.994583 
	C38.135544,69.589882 34.219078,71.898857 30.851812,74.837196 
	C23.711548,81.067924 16.857491,87.626648 9.886076,94.050880 
	C7.187196,93.370247 4.488317,92.689613 1.394718,92.004486 
	C1.000000,90.285645 1.000000,88.571281 1.000000,86.428467 
z"/>
<path fill="#47AACA" opacity="1.000000" stroke="none" 
	d="
M141.005264,228.834564 
	C140.487015,229.373596 139.968750,229.912613 139.725250,230.725815 
	C138.933334,231.000000 137.866653,231.000000 136.399994,231.000000 
	C135.061478,229.906326 134.122940,228.812653 133.366302,227.214996 
	C134.098740,225.733444 134.903381,224.817413 135.157425,223.768066 
	C136.533371,218.084198 137.791748,212.371475 139.054840,206.660782 
	C140.395416,200.599701 141.695923,194.529755 143.472031,188.366028 
	C151.937378,188.327927 159.944641,188.387482 167.832947,188.604706 
	C167.511444,188.937454 167.281662,189.062469 166.569901,189.097961 
	C163.089844,189.082809 160.064514,189.107086 156.611176,189.097687 
	C154.582092,189.138336 152.981003,189.212631 151.116745,189.299133 
	C147.675247,202.755249 144.340256,215.794907 141.005264,228.834564 
z"/>
<path fill="#5191CD" opacity="1.000000" stroke="none" 
	d="
M230.000000,63.625000 
	C227.280716,66.650826 224.561447,69.301659 221.101807,71.986908 
	C215.270615,74.819847 210.186523,77.630737 205.087143,80.413620 
	C199.222519,83.614113 193.344376,86.789818 187.372711,89.568985 
	C187.339142,87.771614 187.404953,86.381538 187.818146,84.981125 
	C188.493057,84.922066 188.881790,84.971390 189.139297,84.810570 
	C201.049515,77.372673 212.962357,69.938614 224.812012,62.405190 
	C225.494751,61.971149 225.652328,60.711048 226.054321,59.835396 
	C227.185364,60.415871 228.316391,60.996349 229.723724,61.288414 
	C230.000000,61.750000 230.000000,62.500000 230.000000,63.625000 
z"/>
<path fill="#F23F27" opacity="1.000000" stroke="none" 
	d="
M30.861935,158.062561 
	C25.132511,153.765747 19.382875,149.495514 13.682713,145.160217 
	C11.073584,143.175827 8.746652,140.752686 5.956093,139.092819 
	C2.914253,137.283493 2.975455,135.595947 4.551380,132.768402 
	C10.502015,122.091660 16.223297,111.287102 22.480732,100.211273 
	C24.598946,100.301109 26.266853,100.710060 28.147619,101.377045 
	C29.574224,102.084030 30.787973,102.532974 32.000008,103.451721 
	C31.998487,120.277054 32.031879,136.632767 31.949116,152.987885 
	C31.940546,154.681229 31.240915,156.371094 30.861935,158.062561 
z"/>
<path fill="#6B58A6" opacity="1.000000" stroke="none" 
	d="
M88.947502,199.129089 
	C79.592224,202.421799 70.236954,205.714508 60.232170,208.837921 
	C59.834274,202.809128 65.064110,200.797791 68.634743,197.910217 
	C71.975853,195.208252 74.627014,193.067032 73.463959,188.354919 
	C81.317406,188.347000 88.712074,188.437256 96.052948,188.932510 
	C95.009071,192.236328 94.018997,195.135162 93.016357,198.026993 
	C93.003799,198.019989 93.025055,198.018860 92.815804,198.108780 
	C92.340202,198.366653 92.154366,198.598984 91.661407,198.933472 
	C90.498352,199.023834 89.722931,199.076462 88.947502,199.129089 
z"/>
<path fill="#7054A0" opacity="1.000000" stroke="none" 
	d="
M73.005165,188.453094 
	C74.627014,193.067032 71.975853,195.208252 68.634743,197.910217 
	C65.064110,200.797791 59.834274,202.809128 59.840233,208.861969 
	C54.007576,211.382797 47.917362,213.710251 41.453964,215.753372 
	C44.521896,211.574570 47.894253,207.616516 51.421368,203.801544 
	C55.923813,198.931641 62.184662,195.518600 64.439835,188.347061 
	C67.589081,188.314880 70.297119,188.383987 73.005165,188.453094 
z"/>
<path fill="#EA429F" opacity="1.000000" stroke="none" 
	d="
M10.069068,94.384827 
	C16.857491,87.626648 23.711548,81.067924 30.851812,74.837196 
	C34.219078,71.898857 38.135544,69.589882 42.261402,67.426437 
	C42.641010,70.949158 42.562366,74.041176 42.084732,77.100304 
	C39.428070,78.240814 36.754490,78.979591 34.989868,80.668221 
	C29.457333,85.962517 24.267256,91.614677 18.944519,97.128220 
	C16.047033,96.325073 13.149547,95.521927 10.069068,94.384827 
z"/>
<path fill="#76549E" opacity="1.000000" stroke="none" 
	d="
M63.998631,188.448349 
	C62.184662,195.518600 55.923813,198.931641 51.421368,203.801544 
	C47.894253,207.616516 44.521896,211.574570 41.069527,215.827667 
	C36.669464,217.795090 32.280655,219.403900 27.243635,220.850632 
	C27.318697,219.370499 27.764740,217.754654 28.809563,216.781998 
	C36.419254,209.697937 44.270477,202.869095 51.758667,195.661713 
	C53.696793,193.796249 54.616455,190.872665 56.439861,188.339142 
	C59.250065,188.311554 61.624348,188.379944 63.998631,188.448349 
z"/>
<path fill="#4DA4C1" opacity="1.000000" stroke="none" 
	d="
M143.013931,188.463684 
	C141.695923,194.529755 140.395416,200.599701 139.054840,206.660782 
	C137.791748,212.371475 136.533371,218.084198 135.157425,223.768066 
	C134.903381,224.817413 134.098740,225.733444 133.214462,226.885254 
	C131.672668,226.620895 130.464630,226.182297 129.116058,225.031342 
	C129.847336,219.798889 130.705414,215.276077 131.594009,210.759293 
	C133.056808,203.323807 134.539368,195.892197 136.442535,188.361725 
	C138.918945,188.330887 140.966446,188.397293 143.013931,188.463684 
z"/>
<path fill="#E043A1" opacity="1.000000" stroke="none" 
	d="
M19.073467,97.419632 
	C24.267256,91.614677 29.457333,85.962517 34.989868,80.668221 
	C36.754490,78.979591 39.428070,78.240814 42.176910,77.546440 
	C42.604919,81.987663 42.541759,85.949867 42.054260,89.931313 
	C34.317631,90.304611 31.523052,96.198456 27.934761,101.119011 
	C26.266853,100.710060 24.598946,100.301109 22.563820,99.841202 
	C21.198540,99.097176 20.200480,98.404114 19.073467,97.419632 
z"/>
<path fill="#E6422B" opacity="1.000000" stroke="none" 
	d="
M30.998032,158.363007 
	C31.240915,156.371094 31.940546,154.681229 31.949116,152.987885 
	C32.031879,136.632767 31.998487,120.277054 32.347355,103.475159 
	C33.787262,103.416092 34.878105,103.803383 35.978271,104.641632 
	C35.991684,120.461998 35.935795,135.832001 36.088810,151.199936 
	C36.104832,152.809082 37.355202,154.405945 37.983715,156.405762 
	C37.922112,157.336365 37.909672,157.869705 37.908882,158.415131 
	C37.920536,158.427216 37.924587,158.457916 37.671913,158.710907 
	C37.159035,159.626144 36.898823,160.288361 36.342369,160.965637 
	C35.649666,161.004364 35.253208,161.028061 34.856750,161.051743 
	C33.615875,160.255646 32.375000,159.459549 30.998032,158.363007 
z"/>
<path fill="#78519A" opacity="1.000000" stroke="none" 
	d="
M56.003941,188.435120 
	C54.616455,190.872665 53.696793,193.796249 51.758667,195.661713 
	C44.270477,202.869095 36.419254,209.697937 28.809563,216.781998 
	C27.764740,217.754654 27.318697,219.370499 26.852539,220.874527 
	C24.971121,222.090057 22.832586,223.119629 19.826023,224.567108 
	C20.753107,220.551025 21.467340,217.457016 22.860376,214.135681 
	C27.142433,211.322266 30.942242,208.965530 34.297581,206.090134 
	C38.207176,202.739777 41.451912,198.575684 45.517178,195.458557 
	C48.113644,193.467667 49.371037,191.538193 49.432468,188.329010 
	C51.909603,188.300339 53.956772,188.367722 56.003941,188.435120 
z"/>
<path fill="#7D4F94" opacity="1.000000" stroke="none" 
	d="
M49.002502,188.425095 
	C49.371037,191.538193 48.113644,193.467667 45.517178,195.458557 
	C41.451912,198.575684 38.207176,202.739777 34.297581,206.090134 
	C30.942242,208.965530 27.142433,211.322266 23.174110,213.917587 
	C23.796118,210.175064 24.783192,206.423309 26.319605,202.328064 
	C28.112890,201.289673 29.543213,200.799088 30.568169,199.864120 
	C34.763519,196.037186 38.835182,192.074677 43.386707,188.162842 
	C45.548191,188.250778 47.275345,188.337936 49.002502,188.425095 
z"/>
<path fill="#539EB9" opacity="1.000000" stroke="none" 
	d="
M136.013596,188.458954 
	C134.539368,195.892197 133.056808,203.323807 131.594009,210.759293 
	C130.705414,215.276077 129.847336,219.798889 128.957809,224.739349 
	C126.679512,223.671524 124.418938,222.183334 122.356171,220.199646 
	C124.358109,212.816071 126.235313,205.946014 127.935768,199.032455 
	C128.793488,195.545258 129.330872,191.979279 130.433746,188.353561 
	C132.574127,188.325119 134.293854,188.392044 136.013596,188.458954 
z"/>
<path fill="#5999B0" opacity="1.000000" stroke="none" 
	d="
M130.013092,188.448914 
	C129.330872,191.979279 128.793488,195.545258 127.935768,199.032455 
	C126.235313,205.946014 124.358109,212.816071 122.215820,219.883453 
	C120.339920,219.295013 118.802177,218.527206 117.155037,217.073837 
	C119.367760,207.075562 121.689880,197.762848 124.432686,188.354370 
	C126.573280,188.322052 128.293182,188.385483 130.013092,188.448914 
z"/>
<path fill="#89519D" opacity="1.000000" stroke="none" 
	d="
M42.952377,188.162064 
	C38.835182,192.074677 34.763519,196.037186 30.568169,199.864120 
	C29.543213,200.799088 28.112890,201.289673 26.514439,201.986115 
	C27.111853,198.249268 28.063770,194.510864 29.271284,190.245590 
	C29.762461,189.488373 29.902472,189.209976 29.946911,188.883499 
	C29.946911,188.883499 29.949905,188.968079 30.272266,188.938263 
	C34.574280,186.269150 38.553932,183.629837 42.637444,181.426392 
	C42.811668,183.962189 42.882023,186.062134 42.952377,188.162064 
z"/>
<path fill="#6193A8" opacity="1.000000" stroke="none" 
	d="
M124.012001,188.450134 
	C121.689880,197.762848 119.367760,207.075562 116.989830,216.783081 
	C116.028267,216.694122 115.122505,216.210373 114.095520,214.995819 
	C115.652206,205.658920 117.330116,197.052826 119.417625,188.350067 
	C121.222153,188.318985 122.617073,188.384567 124.012001,188.450134 
z"/>
<path fill="#A14FA9" opacity="1.000000" stroke="none" 
	d="
M37.897228,158.403061 
	C37.909672,157.869705 37.922112,157.336365 38.255508,156.256348 
	C39.112511,154.825760 39.648548,153.941818 40.425053,153.170914 
	C41.319016,153.537888 41.972515,153.791824 42.696373,154.504120 
	C42.688118,159.970505 42.609501,164.978516 42.223305,170.087921 
	C38.884384,173.109802 35.853054,176.030273 32.821720,178.950760 
	C34.060074,174.274765 35.330795,169.606812 36.499733,164.913528 
	C36.663502,164.255981 36.328140,163.474106 36.261032,162.291000 
	C36.610832,161.615204 36.724293,161.321335 36.638618,160.950592 
	C36.898823,160.288361 37.159035,159.626144 37.803535,158.788605 
	C38.187832,158.613281 38.306995,158.378204 38.306995,158.378204 
	C38.306995,158.378204 37.897228,158.403061 37.897228,158.403061 
z"/>
<path fill="#718798" opacity="1.000000" stroke="none" 
	d="
M107.868195,211.066833 
	C106.302994,210.269714 104.737785,209.472595 103.331039,208.144119 
	C103.975159,203.397522 104.460815,199.182312 105.165558,194.697632 
	C107.839767,192.676071 112.076668,192.934998 112.431915,188.378922 
	C113.166031,188.344299 113.588127,188.391479 114.008530,188.836502 
	C111.960617,196.511841 109.914413,203.789337 107.868195,211.066833 
z"/>
<path fill="#698EA0" opacity="1.000000" stroke="none" 
	d="
M108.008636,211.383362 
	C109.914413,203.789337 111.960617,196.511841 114.418045,188.742416 
	C116.222183,188.315903 117.615112,188.381317 119.008026,188.446732 
	C117.330116,197.052826 115.652206,205.658920 113.957794,214.712708 
	C112.010559,214.006897 110.079819,212.853394 108.008636,211.383362 
z"/>
<path fill="#9250A2" opacity="1.000000" stroke="none" 
	d="
M32.498482,179.152969 
	C35.853054,176.030273 38.884384,173.109802 42.330719,170.536072 
	C42.675007,174.252045 42.604294,177.621292 42.533581,180.990524 
	C38.553932,183.629837 34.574280,186.269150 30.235811,188.916779 
	C30.643080,185.735138 31.409163,182.545151 32.498482,179.152969 
z"/>
<path fill="#7B7F8B" opacity="1.000000" stroke="none" 
	d="
M104.946465,194.967087 
	C104.460815,199.182312 103.975159,203.397522 103.177475,207.839874 
	C101.444237,207.096359 100.023026,206.125717 98.312164,204.617706 
	C98.348030,201.699432 98.673538,199.318527 99.230743,196.678772 
	C101.290451,195.935623 103.118454,195.451355 104.946465,194.967087 
z"/>
<path fill="#8A7C86" opacity="1.000000" stroke="none" 
	d="
M98.999054,196.937622 
	C98.673538,199.318527 98.348030,201.699432 98.012131,204.476517 
	C95.092369,203.156876 92.182991,201.441055 89.110550,199.427155 
	C89.722931,199.076462 90.498352,199.023834 91.872101,198.850281 
	C92.732903,198.553146 92.917778,198.316315 93.025055,198.018860 
	C93.025055,198.018860 93.003799,198.019989 93.400467,198.017426 
	C95.531097,197.655777 97.265076,197.296707 98.999054,196.937622 
z"/>
<path fill="#D64936" opacity="1.000000" stroke="none" 
	d="
M36.342373,160.965637 
	C36.724293,161.321335 36.610832,161.615204 36.087456,161.967041 
	C35.594601,161.915390 35.312538,161.728912 34.943611,161.297089 
	C35.253208,161.028061 35.649666,161.004364 36.342373,160.965637 
z"/>
<path fill="#9250A2" opacity="1.000000" stroke="none" 
	d="
M29.697357,188.968384 
	C29.902472,189.209976 29.762461,189.488373 29.326023,189.844147 
	C29.232712,189.664154 29.340258,189.358719 29.697357,188.968384 
z"/>
<path fill="#38C4F6" opacity="1.000000" stroke="none" 
	d="
M130.809387,38.021946 
	C139.442932,27.924749 148.017761,17.775736 156.807205,7.816119 
	C157.623184,6.891493 160.428345,6.368622 161.249405,7.012182 
	C169.223923,13.262833 176.971985,19.802370 184.872040,26.923546 
	C181.510452,30.715143 178.028519,33.807419 174.624023,36.982712 
	C172.357162,39.096970 170.200745,41.329651 167.536194,43.609062 
	C156.391769,43.645290 145.706039,43.581776 134.985245,43.205086 
	C133.569916,41.268585 132.189651,39.645264 130.809387,38.021946 
z"/>
<path fill="#EE419F" opacity="1.000000" stroke="none" 
	d="
M58.994385,43.522102 
	C60.514324,40.663406 61.486530,37.271740 63.654560,35.043674 
	C70.811790,27.688244 78.460190,20.813046 85.764061,13.595647 
	C86.921150,12.452254 87.272980,10.493951 87.996719,8.540382 
	C93.364136,8.786728 98.731941,9.405108 104.316101,10.336312 
	C96.629730,17.685019 88.480865,24.470095 80.938309,31.872923 
	C77.648621,35.101669 75.601707,39.596649 72.535858,43.615154 
	C67.719017,43.649849 63.356701,43.585976 58.994385,43.522102 
z"/>
<path fill="#E243A2" opacity="1.000000" stroke="none" 
	d="
M72.990395,43.516586 
	C75.601707,39.596649 77.648621,35.101669 80.938309,31.872923 
	C88.480865,24.470095 96.629730,17.685019 104.739311,10.404696 
	C106.560753,11.857987 108.175316,13.555718 109.878174,15.909487 
	C102.771393,24.067099 95.533943,31.528942 88.425293,39.111549 
	C87.313324,40.297665 86.787216,42.033024 85.536972,43.612919 
	C81.052628,43.646481 77.021507,43.581532 72.990395,43.516586 
z"/>
<path fill="#40A7DE" opacity="1.000000" stroke="none" 
	d="
M211.052216,47.868546 
	C213.281540,49.331978 215.510849,50.795406 217.849304,52.918930 
	C214.177109,56.339470 210.585510,59.422211 206.570526,61.785774 
	C200.355194,65.444649 193.850830,68.612526 187.371094,71.547791 
	C187.340958,68.401184 187.408722,65.695389 187.833588,62.988125 
	C195.811203,57.947289 203.431702,52.907917 211.052216,47.868546 
z"/>
<path fill="#38BDEF" opacity="1.000000" stroke="none" 
	d="
M167.994888,43.509323 
	C170.200745,41.329651 172.357162,39.096970 174.624023,36.982712 
	C178.028519,33.807419 181.510452,30.715143 185.003876,27.233913 
	C188.961288,30.013819 192.874268,33.147377 196.727386,36.871178 
	C193.510101,39.624668 190.352661,41.787918 186.718964,43.872948 
	C180.160095,43.699589 174.077499,43.604454 167.994888,43.509323 
z"/>
<path fill="#D644A3" opacity="1.000000" stroke="none" 
	d="
M85.990204,43.514408 
	C86.787216,42.033024 87.313324,40.297665 88.425293,39.111549 
	C95.533943,31.528942 102.771393,24.067099 110.012383,16.212145 
	C111.373222,17.630692 112.688164,19.402618 113.978561,21.883785 
	C111.064133,25.467575 107.773506,28.047634 105.388504,31.293196 
	C102.575836,35.120724 97.476006,37.669697 97.441803,43.572609 
	C93.338402,43.606617 89.664299,43.560513 85.990204,43.514408 
z"/>
<path fill="#469FD7" opacity="1.000000" stroke="none" 
	d="
M187.469025,71.988586 
	C193.850830,68.612526 200.355194,65.444649 206.570526,61.785774 
	C210.585510,59.422211 214.177109,56.339470 218.007812,53.219067 
	C219.312454,53.997524 220.567749,55.135937 221.803101,56.892857 
	C221.209427,58.302383 220.798767,59.338268 220.036377,59.846073 
	C213.344070,64.303574 206.670593,68.799706 199.820084,73.005112 
	C196.099365,75.289192 192.045898,77.031258 188.093506,78.736404 
	C187.810089,77.956360 187.575684,77.457695 187.291275,76.545212 
	C187.317169,74.750458 187.393097,73.369522 187.469025,71.988586 
z"/>
<path fill="#4C97D1" opacity="1.000000" stroke="none" 
	d="
M188.142517,79.017807 
	C192.045898,77.031258 196.099365,75.289192 199.820084,73.005112 
	C206.670593,68.799706 213.344070,64.303574 220.036377,59.846073 
	C220.798767,59.338268 221.209427,58.302383 221.923218,57.188736 
	C223.303818,57.657249 224.544342,58.448387 225.919601,59.537460 
	C225.652328,60.711048 225.494751,61.971149 224.812012,62.405190 
	C212.962357,69.938614 201.049515,77.372673 189.139297,84.810570 
	C188.881790,84.971390 188.493057,84.922066 187.719360,84.569534 
	C187.294052,82.477913 187.314911,80.787529 187.538971,79.092651 
	C187.742157,79.088158 188.142517,79.017807 188.142517,79.017807 
z"/>
<path fill="#C449A8" opacity="1.000000" stroke="none" 
	d="
M120.052124,26.870064 
	C122.961029,30.322720 125.869926,33.775375 128.904572,37.933647 
	C128.068008,39.429733 127.109894,40.225410 126.142212,41.009258 
	C125.088562,41.862743 124.026031,42.705265 122.509087,43.633514 
	C117.031448,43.648361 112.012100,43.582253 107.059639,43.191055 
	C109.142921,38.040024 111.679192,33.694729 116.432030,30.909615 
	C117.917641,30.039064 118.860703,28.242657 120.052124,26.870064 
z"/>
<path fill="#CC46A6" opacity="1.000000" stroke="none" 
	d="
M119.917824,26.566950 
	C118.860703,28.242657 117.917641,30.039064 116.432030,30.909615 
	C111.679192,33.694729 109.142921,38.040024 106.637573,43.291382 
	C103.389442,43.642033 100.630280,43.567268 97.871117,43.492508 
	C97.476006,37.669697 102.575836,35.120724 105.388504,31.293196 
	C107.773506,28.047634 111.064133,25.467575 113.999268,22.240849 
	C115.957527,23.347057 117.870522,24.805447 119.917824,26.566950 
z"/>
<path fill="#3AB6EA" opacity="1.000000" stroke="none" 
	d="
M187.195206,43.951172 
	C190.352661,41.787918 193.510101,39.624668 196.859528,37.178928 
	C199.984924,39.039444 202.918320,41.182449 205.637192,43.699097 
	C201.157700,47.261314 196.980240,50.579029 192.576355,53.562546 
	C191.191589,54.500702 189.198898,54.541550 187.384979,54.544403 
	C187.255417,50.714199 187.225311,47.332684 187.195206,43.951172 
z"/>
<path fill="#3CB0E4" opacity="1.000000" stroke="none" 
	d="
M187.484467,54.993092 
	C189.198898,54.541550 191.191589,54.500702 192.576355,53.562546 
	C196.980240,50.579029 201.157700,47.261314 205.772308,44.012924 
	C207.681076,45.055992 209.240189,46.158878 210.925751,47.565155 
	C203.431702,52.907917 195.811203,57.947289 187.734665,62.552937 
	C187.347229,59.743835 187.415848,57.368465 187.484467,54.993092 
z"/>
<path fill="#A84492" opacity="1.000000" stroke="none" 
	d="
M122.967369,43.552563 
	C124.026031,42.705265 125.088562,41.862743 126.142212,41.009258 
	C127.109894,40.225410 128.068008,39.429733 129.055222,38.236897 
	C129.463959,37.882942 129.847794,37.931358 130.520508,38.000862 
	C132.189651,39.645264 133.569916,41.268585 134.538361,43.325653 
	C130.406815,43.690449 126.687096,43.621506 122.967369,43.552563 
z"/>
<path fill="#010102" opacity="1.000000" stroke="none" 
	d="
M122.509087,43.633514 
	C126.687096,43.621506 130.406815,43.690449 134.573425,43.638828 
	C145.706039,43.581776 156.391769,43.645290 167.536194,43.609062 
	C174.077499,43.604454 180.160095,43.699589 186.718964,43.872948 
	C187.225311,47.332684 187.255417,50.714199 187.384995,54.544403 
	C187.415848,57.368465 187.347229,59.743835 187.377563,62.554398 
	C187.408722,65.695389 187.340958,68.401184 187.371109,71.547791 
	C187.393097,73.369522 187.317169,74.750458 187.178955,76.895477 
	C187.189697,78.138756 187.262726,78.617950 187.335754,79.097153 
	C187.314911,80.787529 187.294052,82.477913 187.371979,84.579880 
	C187.404953,86.381538 187.339142,87.771614 187.268661,89.960724 
	C187.327545,91.831200 187.391113,92.902634 187.352966,94.395599 
	C187.319778,96.541954 187.388306,98.266792 187.352570,100.435364 
	C187.322830,103.910774 187.397339,106.942451 187.363693,110.344910 
	C187.338120,111.220703 187.420715,111.725723 187.425919,112.506653 
	C187.343430,113.162872 187.338333,113.543167 187.240387,114.210602 
	C187.208649,114.689407 187.269775,114.881088 187.290649,115.532486 
	C187.329010,120.667564 187.407608,125.342926 187.383575,130.474640 
	C187.351791,140.626144 187.422638,150.321304 187.388702,160.472473 
	C187.283951,169.970596 187.283951,179.012680 187.283951,188.480774 
	C183.303986,188.480774 180.166092,188.480774 176.585312,188.373169 
	C173.412247,188.326050 170.682068,188.386536 167.951889,188.447021 
	C159.944641,188.387482 151.937378,188.327927 143.472031,188.366028 
	C140.966446,188.397293 138.918945,188.330887 136.442535,188.361725 
	C134.293854,188.392044 132.574127,188.325119 130.433746,188.353561 
	C128.293182,188.385483 126.573280,188.322052 124.432686,188.354370 
	C122.617073,188.384567 121.222153,188.318985 119.417633,188.350067 
	C117.615112,188.381317 116.222183,188.315903 114.419746,188.344559 
	C113.588127,188.391479 113.166031,188.344299 111.968910,188.260223 
	C106.164841,188.324707 101.135788,188.426117 96.106735,188.527527 
	C88.712074,188.437256 81.317406,188.347000 73.463959,188.354919 
	C70.297119,188.383987 67.589081,188.314880 64.439835,188.347061 
	C61.624348,188.379944 59.250065,188.311554 56.439861,188.339142 
	C53.956772,188.367722 51.909603,188.300339 49.432468,188.329010 
	C47.275345,188.337936 45.548191,188.250778 43.386703,188.162842 
	C42.882023,186.062134 42.811668,183.962189 42.637444,181.426392 
	C42.604294,177.621292 42.675007,174.252045 42.638302,170.434677 
	C42.609501,164.978516 42.688118,159.970505 42.805397,154.059280 
	C42.796932,150.409866 42.749805,147.663651 42.777458,144.463425 
	C42.764446,131.300491 42.676659,118.591568 42.655602,105.429306 
	C42.641083,99.954666 42.559841,94.933365 42.478600,89.912064 
	C42.541759,85.949867 42.604919,81.987663 42.575905,77.579330 
	C42.562366,74.041176 42.641010,70.949158 42.616898,67.425285 
	C42.582527,64.288025 42.650902,61.582615 42.615215,58.436737 
	C42.511150,53.532196 42.511150,49.068130 42.511150,43.722816 
	C47.967941,43.722816 53.023560,43.722816 58.536781,43.622459 
	C63.356701,43.585976 67.719017,43.649849 72.535858,43.615158 
	C77.021507,43.581532 81.052628,43.646481 85.536972,43.612919 
	C89.664299,43.560513 93.338402,43.606617 97.441803,43.572613 
	C100.630280,43.567268 103.389442,43.642033 106.570679,43.616470 
	C112.012100,43.582253 117.031448,43.648361 122.509087,43.633514 
M124.108131,140.757050 
	C131.980560,137.120117 136.377075,130.359955 136.688400,122.323090 
	C137.388367,104.253281 136.907883,86.137741 136.907883,67.862556 
	C131.532654,67.862556 126.417610,67.862556 120.888527,67.862556 
	C120.888527,69.663109 120.887512,71.290710 120.888687,72.918320 
	C120.899170,87.392456 120.982544,101.867126 120.877480,116.340424 
	C120.845154,120.792198 119.655746,125.056274 115.286293,127.243645 
	C111.088158,129.345261 106.851959,128.584229 103.011589,126.062447 
	C100.990639,124.735382 99.179955,123.088104 97.070503,121.424698 
	C93.689354,125.276611 90.469193,128.945129 87.298309,132.557495 
	C96.655914,143.970490 108.984009,146.764618 124.108131,140.757050 
M118.499886,165.107758 
	C107.767555,165.107758 97.035233,165.107758 86.447311,165.107758 
	C86.447311,168.505646 86.447311,171.099594 86.447311,173.729706 
	C104.467171,173.729706 122.193497,173.729706 139.784271,173.729706 
	C139.784271,170.738358 139.784271,168.023270 139.784271,165.107758 
	C132.777802,165.107758 126.138802,165.107758 118.499886,165.107758 
z"/>
<path fill="#3ABEE8" opacity="1.000000" stroke="none" 
	d="
M177.028198,188.480774 
	C180.166092,188.480774 183.303986,188.480774 187.283951,188.480774 
	C187.283951,179.012680 187.283951,169.970596 187.755768,160.442276 
	C188.815887,159.116959 189.728607,158.353165 189.943466,157.427414 
	C192.800186,145.118713 195.471634,132.766693 198.371155,120.468338 
	C200.534714,111.291519 200.073212,101.478844 204.991669,92.723846 
	C204.996979,92.482132 205.000000,91.998604 205.294815,91.837311 
	C207.084229,89.458336 208.578827,87.240662 210.339935,84.892365 
	C211.389801,84.171471 212.173141,83.581200 212.956512,82.990936 
	C213.125504,86.685966 214.017792,90.525757 213.313278,94.045967 
	C211.835754,101.428596 208.244858,108.569984 207.821472,115.942497 
	C207.037506,129.593811 199.169495,141.521469 199.671005,155.511093 
	C199.880295,161.348877 196.536575,167.292603 194.954407,173.227112 
	C194.364746,175.438797 194.441193,177.836914 193.781891,180.019547 
	C191.756210,186.725571 189.144424,193.193085 189.721863,200.537598 
	C189.944458,203.368927 187.984344,206.371841 187.031082,209.712921 
	C182.648804,212.083099 178.254150,214.036972 173.214478,215.799850 
	C172.518784,215.134064 172.354416,214.639175 172.434204,214.187424 
	C173.948334,205.615509 175.491257,197.048660 177.028198,188.480774 
z"/>
<path fill="#38C4F3" opacity="1.000000" stroke="none" 
	d="
M227.480362,108.081650 
	C227.226181,119.163956 226.479599,130.319427 226.085938,141.487320 
	C225.947144,145.424820 227.036346,149.402115 226.935043,153.345062 
	C226.604324,166.220047 226.014877,179.088989 225.444107,191.956665 
	C225.343307,194.229324 224.532135,195.799835 221.870941,196.747406 
	C215.051758,199.175491 208.441254,202.189667 201.375031,204.901459 
	C202.012436,202.534790 203.334793,200.320435 203.980804,197.923782 
	C207.988190,183.056747 212.044464,168.197586 215.679413,153.237366 
	C218.124527,143.174149 219.684677,132.897247 222.071259,122.817871 
	C223.256226,117.813354 225.410934,113.038467 227.480362,108.081650 
z"/>
<path fill="#558CC8" opacity="1.000000" stroke="none" 
	d="
M187.454681,93.974075 
	C187.391113,92.902634 187.327545,91.831200 187.368042,90.368027 
	C193.344376,86.789818 199.222519,83.614113 205.087143,80.413620 
	C210.186523,77.630737 215.270615,74.819847 220.769424,72.042725 
	C219.366409,74.362244 217.555435,76.660378 215.211212,78.772629 
	C206.118713,83.725250 197.559494,88.863762 188.742615,93.999374 
	C188.141525,93.989006 187.798111,93.981537 187.454681,93.974075 
z"/>
<path fill="#5988C5" opacity="1.000000" stroke="none" 
	d="
M189.000259,94.002274 
	C197.559494,88.863762 206.118713,83.725250 214.875977,78.848557 
	C214.400558,80.190826 213.727081,81.271278 213.005051,82.671333 
	C212.173141,83.581200 211.389801,84.171471 209.941040,84.884628 
	C206.471130,86.214752 203.654327,87.394394 200.865036,88.635849 
	C196.899506,90.400841 192.954208,92.211266 189.000259,94.002274 
z"/>
<path fill="#3CB8DF" opacity="1.000000" stroke="none" 
	d="
M176.585297,188.373169 
	C175.491257,197.048660 173.948334,205.615509 172.434204,214.187424 
	C172.354416,214.639175 172.518784,215.134064 172.840591,215.832306 
	C169.012405,217.707993 164.913101,219.360245 160.416168,220.642731 
	C162.353897,209.894424 164.689255,199.515915 167.024597,189.137390 
	C167.281662,189.062469 167.511444,188.937454 167.832947,188.604706 
	C170.682068,188.386536 173.412247,188.326050 176.585297,188.373169 
z"/>
<path fill="#43AFD2" opacity="1.000000" stroke="none" 
	d="
M141.376892,228.900269 
	C144.340256,215.794907 147.675247,202.755249 151.116745,189.299133 
	C152.981003,189.212631 154.582092,189.138336 156.596771,189.540527 
	C155.008484,201.622803 153.006592,213.228607 151.004700,224.834412 
	C147.919296,226.211594 144.833908,227.588791 141.376892,228.900269 
z"/>
<path fill="#3FB4D9" opacity="1.000000" stroke="none" 
	d="
M151.374619,224.900299 
	C153.006592,213.228607 155.008484,201.622803 157.024780,189.574188 
	C160.064514,189.107086 163.089844,189.082809 166.569885,189.097961 
	C164.689255,199.515915 162.353897,209.894424 160.031403,220.700790 
	C157.277679,222.407822 154.511108,223.687012 151.374619,224.900299 
z"/>
<path fill="#D245A3" opacity="1.000000" stroke="none" 
	d="
M42.054260,89.931313 
	C42.559841,94.933365 42.641083,99.954666 42.460037,105.430946 
	C42.197742,105.885925 41.833797,106.029648 41.481033,106.005188 
	C39.408497,105.384041 37.688721,104.787361 35.968945,104.190674 
	C34.878105,103.803383 33.787262,103.416092 32.349068,103.005371 
	C30.787973,102.532974 29.574224,102.084030 28.147619,101.377045 
	C31.523052,96.198456 34.317631,90.304611 42.054260,89.931313 
z"/>
<path fill="#565D9B" opacity="1.000000" stroke="none" 
	d="
M96.052948,188.932510 
	C101.135788,188.426117 106.164841,188.324707 111.656891,188.342010 
	C112.076668,192.934998 107.839767,192.676071 105.165558,194.697632 
	C103.118454,195.451355 101.290451,195.935623 99.230743,196.678757 
	C97.265076,197.296707 95.531097,197.655777 93.413025,198.024429 
	C94.018997,195.135162 95.009071,192.236328 96.052948,188.932510 
z"/>
<path fill="#565D9B" opacity="1.000000" stroke="none" 
	d="
M92.815804,198.108780 
	C92.917778,198.316315 92.732903,198.553146 92.259735,198.812531 
	C92.154366,198.598984 92.340202,198.366653 92.815804,198.108780 
z"/>
<path fill="#D64936" opacity="1.000000" stroke="none" 
	d="
M35.978271,104.641632 
	C37.688721,104.787361 39.408497,105.384041 41.524925,106.468964 
	C41.644676,119.679497 41.367775,132.401779 41.060600,145.485352 
	C41.009926,146.571259 40.989521,147.295898 40.676880,148.164154 
	C40.285828,149.538620 40.187000,150.769470 40.096672,152.266144 
	C40.131641,152.707275 40.158115,152.882584 40.184586,153.057877 
	C39.648548,153.941818 39.112511,154.825760 38.304672,155.859100 
	C37.355202,154.405945 36.104832,152.809082 36.088810,151.199936 
	C35.935795,135.832001 35.991684,120.461998 35.978271,104.641632 
z"/>
<path fill="#D64936" opacity="1.000000" stroke="none" 
	d="
M37.908882,158.415131 
	C37.897228,158.403061 38.306995,158.378204 38.306995,158.378204 
	C38.306995,158.378204 38.187832,158.613281 38.056210,158.535599 
	C37.924587,158.457916 37.920536,158.427216 37.908882,158.415131 
z"/>
<path fill="#7D4F94" opacity="1.000000" stroke="none" 
	d="
M40.425056,153.170914 
	C40.158115,152.882584 40.131641,152.707275 40.341629,152.096436 
	C40.708431,150.447464 40.838772,149.233994 40.969112,148.020538 
	C40.989521,147.295898 41.009926,146.571259 41.328773,145.450439 
	C41.985703,145.008667 42.344193,144.963058 42.702679,144.917435 
	C42.749805,147.663651 42.796932,150.409866 42.735039,153.600922 
	C41.972515,153.791824 41.319016,153.537888 40.425056,153.170914 
z"/>
<path fill="#3E749B" opacity="1.000000" stroke="none" 
	d="
M187.538956,79.092651 
	C187.262726,78.617950 187.189697,78.138756 187.228973,77.309296 
	C187.575684,77.457695 187.810089,77.956360 188.093506,78.736412 
	C188.142517,79.017807 187.742157,79.088158 187.538956,79.092651 
z"/>
<path fill="#FCFCFC" opacity="1.000000" stroke="none" 
	d="
M123.749817,140.883621 
	C108.984009,146.764618 96.655914,143.970490 87.298309,132.557495 
	C90.469193,128.945129 93.689354,125.276611 97.070503,121.424698 
	C99.179955,123.088104 100.990639,124.735382 103.011589,126.062447 
	C106.851959,128.584229 111.088158,129.345261 115.286293,127.243645 
	C119.655746,125.056274 120.845154,120.792198 120.877480,116.340424 
	C120.982544,101.867126 120.899170,87.392456 120.888687,72.918320 
	C120.887512,71.290710 120.888527,69.663109 120.888527,67.862556 
	C126.417610,67.862556 131.532654,67.862556 136.907883,67.862556 
	C136.907883,86.137741 137.388367,104.253281 136.688400,122.323090 
	C136.377075,130.359955 131.980560,137.120117 123.749817,140.883621 
z"/>
<path fill="#F7F7F7" opacity="1.000000" stroke="none" 
	d="
M118.999847,165.107758 
	C126.138802,165.107758 132.777802,165.107758 139.784271,165.107758 
	C139.784271,168.023270 139.784271,170.738358 139.784271,173.729706 
	C122.193497,173.729706 104.467171,173.729706 86.447311,173.729706 
	C86.447311,171.099594 86.447311,168.505646 86.447311,165.107758 
	C97.035233,165.107758 107.767555,165.107758 118.999847,165.107758 
z"/>
<path fill="#3BBBE5" opacity="1.000000" stroke="none" 
	d="
M204.986359,92.965546 
	C200.073212,101.478844 200.534714,111.291519 198.371155,120.468338 
	C195.471634,132.766693 192.800186,145.118713 189.943466,157.427414 
	C189.728607,158.353165 188.815887,159.116959 187.860519,159.986237 
	C187.422638,150.321304 187.351791,140.626144 187.736801,130.450745 
	C188.877502,129.180145 190.006668,128.474915 190.177017,127.585968 
	C191.552505,120.408569 192.747711,113.196632 194.136383,105.689590 
	C197.845337,101.244484 201.415848,97.105019 204.986359,92.965546 
z"/>
<path fill="#5E78BC" opacity="1.000000" stroke="none" 
	d="
M204.991669,92.723839 
	C201.415848,97.105019 197.845337,101.244484 193.844208,105.839157 
	C191.929169,107.866226 190.444778,109.438087 188.848679,110.794434 
	C188.315277,110.377319 187.893570,110.175728 187.471863,109.974136 
	C187.397339,106.942451 187.322830,103.910774 187.696564,100.423683 
	C190.559631,98.690651 192.929398,97.316788 195.400604,96.159538 
	C198.557587,94.681137 201.796432,93.377533 205.000000,91.998604 
	C205.000000,91.998604 204.996979,92.482132 204.991669,92.723839 
z"/>
<path fill="#3CB8E1" opacity="1.000000" stroke="none" 
	d="
M188.960388,111.009964 
	C190.444778,109.438087 191.929169,107.866226 193.705750,106.144806 
	C192.747711,113.196632 191.552505,120.408569 190.177017,127.585968 
	C190.006668,128.474915 188.877502,129.180145 187.839432,129.994385 
	C187.407608,125.342926 187.329010,120.667564 187.447052,115.425690 
	C187.682724,114.739212 187.787964,114.586533 187.747971,114.505676 
	C187.643677,114.294815 187.475769,114.115410 187.333237,113.923462 
	C187.338333,113.543167 187.343430,113.162872 187.671066,112.449402 
	C188.315872,111.747475 188.638123,111.378723 188.960388,111.009964 
z"/>
<path fill="#5D83C2" opacity="1.000000" stroke="none" 
	d="
M205.294815,91.837311 
	C201.796432,93.377533 198.557587,94.681137 195.400604,96.159538 
	C192.929398,97.316788 190.559631,98.690651 187.800812,99.979950 
	C187.388306,98.266792 187.319778,96.541954 187.352966,94.395599 
	C187.798111,93.981537 188.141525,93.989006 188.742615,93.999374 
	C192.954208,92.211266 196.899506,90.400841 200.865036,88.635849 
	C203.654327,87.394394 206.471130,86.214752 209.674530,85.015251 
	C208.578827,87.240662 207.084229,89.458336 205.294815,91.837311 
z"/>
<path fill="#AD444D" opacity="1.000000" stroke="none" 
	d="
M42.777458,144.463425 
	C42.344193,144.963058 41.985703,145.008667 41.359047,145.089172 
	C41.367775,132.401779 41.644676,119.679497 41.877686,106.493423 
	C41.833797,106.029648 42.197742,105.885925 42.393307,105.884285 
	C42.676659,118.591568 42.764446,131.300491 42.777458,144.463425 
z"/>
<path fill="#3E749B" opacity="1.000000" stroke="none" 
	d="
M188.848694,110.794434 
	C188.638123,111.378723 188.315872,111.747475 187.748459,112.173485 
	C187.420715,111.725723 187.338120,111.220703 187.363693,110.344910 
	C187.893570,110.175728 188.315277,110.377319 188.848694,110.794434 
z"/>
<path fill="#3E749B" opacity="1.000000" stroke="none" 
	d="
M187.240387,114.210602 
	C187.475769,114.115410 187.643677,114.294815 187.747971,114.505676 
	C187.787964,114.586533 187.682724,114.739212 187.487274,114.965958 
	C187.269775,114.881088 187.208649,114.689407 187.240387,114.210602 
z"/>
<path fill="#AD444D" opacity="1.000000" stroke="none" 
	d="
M40.676880,148.164154 
	C40.838772,149.233994 40.708431,150.447464 40.333130,151.830627 
	C40.187000,150.769470 40.285828,149.538620 40.676880,148.164154 
z"/>
</svg>